<svg width="32" height="32" viewBox="0 0 32 32" fill="none" xmlns="http://www.w3.org/2000/svg">
<path d="M11.17 18.4932C10.7546 18.4951 10.3431 18.5703 9.9557 18.7151L11.5688 19.3205C11.9199 19.4616 12.2629 19.6217 12.5944 19.8039C12.9242 20.0337 13.1917 20.3369 13.3743 20.6879C13.5568 21.0389 13.649 21.4272 13.6429 21.8199C13.6372 22.4747 13.3628 23.1006 12.8799 23.5602C12.3974 24.0198 11.7443 24.2797 11.065 24.2797C10.597 24.2482 10.1406 24.1241 9.72433 23.9152L7.90122 23.2115C8.18222 23.8109 8.63575 24.3197 9.20774 24.6771C9.77973 25.0345 10.4461 25.2256 11.1273 25.2275C12.0561 25.2275 12.9455 24.8725 13.6019 24.2417C13.9266 23.9295 14.1843 23.5584 14.3601 23.1497C14.536 22.7411 14.6265 22.3029 14.6265 21.8604C14.6265 21.4178 14.536 20.9796 14.3601 20.571C14.1843 20.1623 13.9266 19.7912 13.6019 19.479C12.9445 18.8473 12.0547 18.4929 11.1273 18.4932H11.17ZM15.9895 0.349235C11.9488 0.342562 8.05421 1.80847 5.08369 4.45414C2.12018 7.09336 0.30343 10.72 0 14.6023L8.65442 18.1509C9.40926 17.7008 10.2839 17.4773 11.17 17.5058H11.3997L15.215 12.3042C15.204 12.1903 15.204 12.0757 15.215 11.9618C15.215 10.7652 15.5826 9.59557 16.2734 8.60183C16.9655 7.6059 17.9476 6.83045 19.0958 6.37346C20.2446 5.91637 21.5075 5.79692 22.7262 6.03008C23.9449 6.26325 25.0653 6.83865 25.9468 7.68417C26.8248 8.52911 27.4229 9.60694 27.6654 10.7808C27.9079 11.9547 27.7838 13.1717 27.3088 14.2774C26.8324 15.3829 26.0272 16.3272 24.9951 16.9907C23.9613 17.6564 22.7453 18.0098 21.5015 18.0098H21.2504L15.7384 21.8199V21.9816C15.7208 23.0606 15.2919 24.0955 14.534 24.8883C13.7743 25.6842 12.7386 26.1831 11.6234 26.2903C10.5081 26.3975 9.39094 26.1056 8.48376 25.47C7.57792 24.8368 6.94526 23.9036 6.7066 22.8485L0.607155 20.3666C1.48444 23.0972 3.12964 25.5389 5.35937 27.4194C7.59465 29.3024 10.3247 30.5529 13.2488 31.033C16.1729 31.5132 19.1774 31.2044 21.9314 30.1407C24.6828 29.0779 27.0756 27.3 28.8448 25.004C30.6114 22.7133 31.6831 19.9929 31.9398 17.1473C32.1966 14.3017 31.6283 11.4432 30.2987 8.89187C28.9668 6.33722 26.9276 4.18933 24.4076 2.68697C21.8833 1.18168 18.9775 0.379258 16.0108 0.368254L15.9895 0.349235Z" fill="white"/>
<path d="M21.4178 7.92984C20.5904 7.93031 19.7815 8.16668 19.0926 8.60934C18.4036 9.05199 17.8653 9.68122 17.5451 10.4181C17.2275 11.1551 17.1443 11.9667 17.3063 12.7494C17.4682 13.5322 17.8678 14.2506 18.4542 14.8131C18.893 15.2352 19.4231 15.5583 20.0063 15.7594C20.5896 15.9604 21.2117 16.0343 21.8281 15.9759C22.4444 15.9174 23.0397 15.728 23.5714 15.4212C24.103 15.1144 24.5578 14.6978 24.9032 14.2013C25.4415 13.4262 25.6838 12.4943 25.5886 11.5655C25.4934 10.6367 25.0666 9.76876 24.3814 9.11059C23.594 8.35411 22.5284 7.92958 21.4178 7.92984ZM21.4178 14.9668C20.7922 14.9699 20.1796 14.7943 19.657 14.4621C19.1343 14.13 18.725 13.656 18.4805 13.0998C18.2374 12.5442 18.1714 11.9311 18.2909 11.3391C18.4105 10.7471 18.7102 10.2029 19.1516 9.77625C19.5935 9.3491 20.1563 9.05773 20.7693 8.93882C21.3822 8.81992 22.0179 8.87879 22.5962 9.10803C23.1746 9.33727 23.6699 9.72663 24.0196 10.2271C24.3694 10.7276 24.5581 11.3168 24.5619 11.9206C24.5623 12.7269 24.2315 13.5003 23.642 14.0712C23.0525 14.642 22.2526 14.9651 21.4178 14.9668Z" fill="white"/>
</svg>
